<svg width="100" height="100" viewBox="0 0 100 100" fill="none" xmlns="http://www.w3.org/2000/svg">
<g clip-path="url(#clip0_42_2)">
<rect width="100" height="100" fill="white"/>
<g filter="url(#filter0_i_42_2)">
<path d="M0 0H20V20H0V0Z" fill="#202020"/>
<path d="M0 20H20V40H0V20Z" fill="#202020"/>
<path d="M0 40H20V60H0V40Z" fill="#202020"/>
<path d="M0 60H20V80H0V60Z" fill="#202020"/>
<path d="M0 80H20V100H0V80Z" fill="#202020"/>
<path d="M20 0H40V20H20V0Z" fill="#202020"/>
<path d="M20 20H40V40H20V20Z" fill="#202020"/>
<path d="M20 40H40V60H20V40Z" fill="#202020"/>
<path d="M20 60H40V80H20V60Z" fill="#202020"/>
<path d="M20 80H40V100H20V80Z" fill="#202020"/>
<path d="M40 0H60V20H40V0Z" fill="#202020"/>
<path d="M40 20H60V40H40V20Z" fill="#202020"/>
<path d="M40 40H60V60H40V40Z" fill="#202020"/>
<path d="M40 60H60V80H40V60Z" fill="#202020"/>
<path d="M40 80H60V100H40V80Z" fill="#202020"/>
<path d="M60 0H80V20H60V0Z" fill="#202020"/>
<path d="M60 20H80V40H60V20Z" fill="#202020"/>
<path d="M60 40H80V60H60V40Z" fill="#202020"/>
<path d="M60 60H80V80H60V60Z" fill="#202020"/>
<path d="M60 80H80V100H60V80Z" fill="#202020"/>
<path d="M80 0H100V20H80V0Z" fill="#202020"/>
<path d="M80 20H100V40H80V20Z" fill="#202020"/>
<path d="M80 40H100V60H80V40Z" fill="#202020"/>
<path d="M80 60H100V80H80V60Z" fill="#202020"/>
<path d="M80 80H100V100H80V80Z" fill="#202020"/>
</g>
<path d="M19.9 0.1V19.9H0.1V0.1H19.9ZM0.1 20.1H19.9V39.9H0.1V20.1ZM20.1 39.9V20.1H39.9V39.9H20.1ZM0.1 40.1H19.9V59.9H0.1V40.1ZM20.1 59.9V40.1H39.9V59.9H20.1ZM0.1 60.1H19.9V79.9H0.1V60.1ZM20.1 79.9V60.1H39.9V79.9H20.1ZM0.1 80.1H19.9V99.9H0.1V80.1ZM20.1 99.9V80.1H39.9V99.9H20.1ZM20.1 19.9V0.1H39.9V19.9H20.1ZM40.1 19.9V0.1H59.9V19.9H40.1ZM60.1 19.9V0.1H79.9V19.9H60.1ZM80.1 19.9V0.1H99.9V19.9H80.1ZM80.1 20.1H99.9V39.9H80.1V20.1ZM80.1 40.1H99.9V59.9H80.1V40.1ZM80.1 60.1H99.9V79.9H80.1V60.1ZM80.1 80.1H99.9V99.9H80.1V80.1ZM79.9 80.1V99.9H60.1V80.1H79.9ZM59.9 80.1V99.9H40.1V80.1H59.9ZM59.9 79.9H40.1V60.1H59.9V79.9ZM59.9 59.9H40.1V40.1H59.9V59.9ZM59.9 39.9H40.1V20.1H59.9V39.9ZM60.1 39.9V20.1H79.9V39.9H60.1ZM60.1 40.1H79.9V59.9H60.1V40.1ZM60.1 60.1H79.9V79.9H60.1V60.1Z" stroke="#CFCFCF" stroke-opacity="0.5" stroke-width="0.2"/>
</g>
<defs>
<filter id="filter0_i_42_2" x="0" y="0" width="100" height="100" filterUnits="userSpaceOnUse" color-interpolation-filters="sRGB">
<feFlood flood-opacity="0" result="BackgroundImageFix"/>
<feBlend mode="normal" in="SourceGraphic" in2="BackgroundImageFix" result="shape"/>
<feColorMatrix in="SourceAlpha" type="matrix" values="0 0 0 0 0 0 0 0 0 0 0 0 0 0 0 0 0 0 127 0" result="hardAlpha"/>
<feOffset/>
<feGaussianBlur stdDeviation="1"/>
<feComposite in2="hardAlpha" operator="arithmetic" k2="-1" k3="1"/>
<feColorMatrix type="matrix" values="0 0 0 0 1 0 0 0 0 1 0 0 0 0 1 0 0 0 0.25 0"/>
<feBlend mode="normal" in2="shape" result="effect1_innerShadow_42_2"/>
</filter>
<clipPath id="clip0_42_2">
<rect width="100" height="100" fill="white"/>
</clipPath>
</defs>
</svg>
